{"accessors":[{"bufferView":0,"componentType":5121,"count":594,"max":[215],"min":[0],"type":"SCALAR"},{"bufferView":1,"componentType":5126,"count":216,"max":[1.0,1.7463281154632568,1.0],"min":[-1.0,-1.0,-1.0],"type":"VEC3"},{"bufferView":2,"componentType":5126,"count":216,"max":[1.0,1.0,1.0],"min":[-1.0,0.0,-1.0],"type":"VEC3"},{"bufferView":3,"componentType":5126,"count":216,"max":[1.0,1.0],"min":[0.0,0.0],"type":"VEC2"},{"bufferView":4,"componentType":5123,"count":876,"max":[499],"min":[0],"type":"SCALAR"},{"bufferView":5,"componentType":5126,"count":500,"max":[1.0,1.7714817523956299,1.0],"min":[-1.0,-1.0,-1.0],"type":"VEC3"},{"bufferView":6,"componentType":5126,"count":500,"max":[1.0,1.0,1.0],"min":[-1.0,0.0,-1.0],"type":"VEC3"},{"bufferView":7,"componentType":5126,"count":500,"max":[1.0,1.0],"min":[0.0,0.0],"type":"VEC2"},{"bufferView":8,"componentType":5121,"count":312,"max":[179],"min":[0],"type":"SCALAR"},{"bufferView":9,"componentType":5126,"count":180,"max":[1.0,1.5827200412750244,1.0],"min":[-1.0,-1.0,-1.0],"type":"VEC3"},{"bufferView":10,"componentType":5126,"count":180,"max":[1.0,1.0,1.0],"min":[-1.0,0.0,-1.0],"type":"VEC3"},{"bufferView":11,"componentType":5126,"count":180,"max":[1.0,1.0],"min":[0.0,0.0],"type":"VEC2"},{"bufferView":12,"componentType":5121,"count":192,"max":[94],"min":[0],"type":"SCALAR"},{"bufferView":13,"componentType":5126,"count":95,"max":[1.0,1.9840642213821411,1.0],"min":[-1.0,1.9840642213821411,-1.0],"type":"VEC3"},{"bufferView":14,"componentType":5126,"count":95,"max":[0.0,1.0,-0.0],"min":[0.0,0.9999999403953552,-0.0],"type":"VEC3"},{"bufferView":15,"componentType":5126,"count":95,"max":[1.0,4.678443588090886e-07,6.100755456373008e-08,1.0],"min":[1.0,-4.90487707338616e-07,-0.0,1.0],"type":"VEC4"},{"bufferView":16,"componentType":5126,"count":95,"max":[1.0,1.0],"min":[0.0,0.0],"type":"VEC2"},{"bufferView":17,"componentType":5123,"count":768,"max":[323],"min":[0],"type":"SCALAR"},{"bufferView":18,"componentType":5126,"count":324,"max":[1.0,1.9840642213821411,0.9999998807907104],"min":[-1.0,0.0,-1.0000001192092896],"type":"VEC3"},{"bufferView":19,"componentType":5126,"count":324,"max":[1.0,1.0,1.0],"min":[-1.0,-1.0,-1.0],"type":"VEC3"},{"bufferView":20,"componentType":5126,"count":324,"max":[1.0,4.7163243266368227e-07,9.151133184559512e-08,1.0],"min":[1.0,-4.94364883252274e-07,-0.0,-1.0],"type":"VEC4"},{"bufferView":21,"componentType":5126,"count":324,"max":[1.0,1.0],"min":[0.0,0.0],"type":"VEC2"}],"asset":{"generator":"Soft8Soft Verge3D for Blender add-on","version":"2.0"},"bufferViews":[{"buffer":0,"byteLength":594,"byteOffset":0,"target":34963},{"buffer":0,"byteLength":2592,"byteOffset":596,"target":34962},{"buffer":0,"byteLength":2592,"byteOffset":3188,"target":34962},{"buffer":0,"byteLength":1728,"byteOffset":5780,"target":34962},{"buffer":0,"byteLength":1752,"byteOffset":7508,"target":34963},{"buffer":0,"byteLength":6000,"byteOffset":9260,"target":34962},{"buffer":0,"byteLength":6000,"byteOffset":15260,"target":34962},{"buffer":0,"byteLength":4000,"byteOffset":21260,"target":34962},{"buffer":0,"byteLength":312,"byteOffset":25260,"target":34963},{"buffer":0,"byteLength":2160,"byteOffset":25572,"target":34962},{"buffer":0,"byteLength":2160,"byteOffset":27732,"target":34962},{"buffer":0,"byteLength":1440,"byteOffset":29892,"target":34962},{"buffer":0,"byteLength":192,"byteOffset":31332,"target":34963},{"buffer":0,"byteLength":1140,"byteOffset":31524,"target":34962},{"buffer":0,"byteLength":1140,"byteOffset":32664,"target":34962},{"buffer":0,"byteLength":1520,"byteOffset":33804,"target":34962},{"buffer":0,"byteLength":760,"byteOffset":35324,"target":34962},{"buffer":0,"byteLength":1536,"byteOffset":36084,"target":34963},{"buffer":0,"byteLength":3888,"byteOffset":37620,"target":34962},{"buffer":0,"byteLength":3888,"byteOffset":41508,"target":34962},{"buffer":0,"byteLength":5184,"byteOffset":45396,"target":34962},{"buffer":0,"byteLength":2592,"byteOffset":50580,"target":34962}],"buffers":[{"byteLength":53172,"uri":"lego.bin"}],"cameras":[{"extensions":{"S8S_v3d_camera_data":{"controls":"ORBIT","enablePan":true,"moveSpeed":1,"orbitMaxDistance":10000,"orbitMaxPolarAngle":3.141592653589793,"orbitMinDistance":0,"orbitMinPolarAngle":0,"orbitTarget":[-1.7872734069824219,5.064752578735352,-63.53169631958008],"rotateSpeed":1,"viewportFitInitialAspect":1,"viewportFitType":"VERTICAL"}},"name":"__DEFAULT__","perspective":{"aspectRatio":1,"yfov":0.7853981633974483,"zfar":1000.0,"znear":0.10000000149011612},"type":"perspective"}],"extensionsUsed":["S8S_v3d_texture_data","S8S_v3d_material_data","S8S_v3d_camera_data","S8S_v3d_mesh_data","S8S_v3d_node_data","S8S_v3d_scene_data"],"images":[{"uri":"environment.hdr"}],"materials":[{"extensions":{"S8S_v3d_material_data":{"gtaoVisible":true,"materialIndex":0,"nodeGraph":{"edges":[{"fromNode":0,"fromOutput":0,"toInput":0,"toNode":1}],"nodes":[{"inputs":[[0.8000000715255737,0.02935359999537468,0.023073991760611534,1.0],0.0,[1.0,0.20000000298023224,0.10000000149011612],[0.800000011920929,0.800000011920929,0.800000011920929,1.0],1.399999976158142,0.0,0.0,0.5,0.0,0.5,0.0,0.0,0.0,0.5,0.0,0.029999999329447746,1.4500000476837158,0.0,0.0,[0.0,0.0,0.0,1.0],1.0,1.0,[0.0,0.0,0.0],[0.0,0.0,0.0],[0.0,0.0,0.0]],"is_active_output":false,"name":"Principled BSDF","outputs":[[0,0,0,0]],"type":"BSDF_PRINCIPLED_BL"},{"inputs":[[0,0,0,0],[0,0,0,0],[0.0,0.0,0.0]],"is_active_output":true,"name":"Material Output","outputs":[],"type":"OUTPUT_MATERIAL_BL"}]},"useCastShadows":true}},"name":"2.001"},{"extensions":{"S8S_v3d_material_data":{"gtaoVisible":true,"materialIndex":0,"nodeGraph":{"edges":[{"fromNode":0,"fromOutput":0,"toInput":0,"toNode":1}],"nodes":[{"inputs":[[0.8000000715255737,0.02070367895066738,0.10431092232465744,1.0],0.0,[1.0,0.20000000298023224,0.10000000149011612],[0.800000011920929,0.800000011920929,0.800000011920929,1.0],1.399999976158142,0.0,0.0,0.5,0.0,0.5,0.0,0.0,0.0,0.5,0.0,0.029999999329447746,1.4500000476837158,0.0,0.0,[0.0,0.0,0.0,1.0],1.0,1.0,[0.0,0.0,0.0],[0.0,0.0,0.0],[0.0,0.0,0.0]],"is_active_output":false,"name":"Principled BSDF","outputs":[[0,0,0,0]],"type":"BSDF_PRINCIPLED_BL"},{"inputs":[[0,0,0,0],[0,0,0,0],[0.0,0.0,0.0]],"is_active_output":true,"name":"Material Output","outputs":[],"type":"OUTPUT_MATERIAL_BL"}]},"useCastShadows":true}},"name":"Material.002"},{"extensions":{"S8S_v3d_material_data":{"gtaoVisible":true,"materialIndex":0,"nodeGraph":{"edges":[{"fromNode":0,"fromOutput":0,"toInput":0,"toNode":1}],"nodes":[{"inputs":[[0.0,0.8000000715255737,0.005972736049443483,1.0],0.0,[1.0,0.20000000298023224,0.10000000149011612],[0.800000011920929,0.800000011920929,0.800000011920929,1.0],1.399999976158142,0.0,0.0,0.5,0.0,0.5,0.0,0.0,0.0,0.5,0.0,0.029999999329447746,1.4500000476837158,0.0,0.0,[0.0,0.0,0.0,1.0],1.0,1.0,[0.0,0.0,0.0],[0.0,0.0,0.0],[0.0,0.0,0.0]],"is_active_output":false,"name":"Principled BSDF","outputs":[[0,0,0,0]],"type":"BSDF_PRINCIPLED_BL"},{"inputs":[[0,0,0,0],[0,0,0,0],[0.0,0.0,0.0]],"is_active_output":true,"name":"Material Output","outputs":[],"type":"OUTPUT_MATERIAL_BL"}]},"useCastShadows":true}},"name":"Material.003"},{"extensions":{"S8S_v3d_material_data":{"gtaoVisible":true,"materialIndex":0,"nodeGraph":{"edges":[{"fromNode":0,"fromOutput":0,"toInput":0,"toNode":1}],"nodes":[{"inputs":[[0.027718447148799896,0.027718447148799896,0.027718447148799896,1.0],0.0,[1.0,0.20000000298023224,0.10000000149011612],[0.800000011920929,0.800000011920929,0.800000011920929,1.0],1.399999976158142,0.0,0.0,0.5,0.0,0.5,0.0,0.0,0.0,0.5,0.0,0.029999999329447746,1.4500000476837158,0.0,0.0,[0.0,0.0,0.0,1.0],1.0,1.0,[0.0,0.0,0.0],[0.0,0.0,0.0],[0.0,0.0,0.0]],"is_active_output":false,"name":"Principled BSDF","outputs":[[0,0,0,0]],"type":"BSDF_PRINCIPLED_BL"},{"inputs":[[0,0,0,0],[0,0,0,0],[0.0,0.0,0.0]],"is_active_output":true,"name":"Material Output","outputs":[],"type":"OUTPUT_MATERIAL_BL"}]},"useCastShadows":true}},"name":"Material.018"},{"extensions":{"S8S_v3d_material_data":{"gtaoVisible":true,"materialIndex":0,"nodeGraph":{"edges":[{"fromNode":0,"fromOutput":0,"toInput":0,"toNode":1},{"fromNode":4,"fromOutput":0,"toInput":1,"toNode":2},{"fromNode":3,"fromOutput":0,"toInput":0,"toNode":2},{"fromNode":2,"fromOutput":0,"toInput":0,"toNode":0}],"nodes":[{"inputs":[[0.05087608844041824,0.05087608844041824,0.05087608844041824,1.0],1.0],"is_active_output":false,"name":"Background","outputs":[[0,0,0,0]],"type":"BACKGROUND_BL"},{"inputs":[[0,0,0,0],[0,0,0,0]],"is_active_output":true,"name":"World Output","outputs":[],"type":"OUTPUT_WORLD_BL"},{"blendType":"MIX","inputs":[0.5,[0.5,0.5,0.5,1.0],[0.05126946419477463,0.05126946419477463,0.05126946419477463,1.0]],"is_active_output":false,"name":"Mix","outputs":[[0.0,0.0,0.0,0.0]],"type":"MIX_RGB_BL","useClamp":false},{"inputs":[],"is_active_output":false,"name":"Light Path","outputs":[0.0,0.0,0.0,0.0,0.0,0.0,0.0,0.0,0.0,0.0,0.0,0.0,0.0],"type":"LIGHT_PATH_BL"},{"inputs":[[0.0,0.0,0.0]],"is_active_output":false,"name":"Environment Texture","outputs":[[0.0,0.0,0.0,0.0]],"projection":"EQUIRECTANGULAR","texture":0,"type":"TEX_ENVIRONMENT_BL"}]},"useCastShadows":true}},"name":"Verge3D_Environment_World"},{"emissiveFactor":[0.0,0.0,0.0],"extensions":{"S8S_v3d_material_data":{"nodeGraph":{"edges":[{"fromNode":1,"fromOutput":0,"toInput":0,"toNode":0}],"nodes":[{"inputs":[[0,0,0,0],[0,0,0,0],0.0],"is_active_output":true,"name":"Material Output","outputs":[],"type":"OUTPUT_MATERIAL_BL"},{"inputs":[[0.800000011920929,0.800000011920929,0.800000011920929,1.0],0.0,[0.0,0.0,0.0]],"is_active_output":false,"name":"Diffuse BSDF","outputs":[[0,0,0,0]],"type":"BSDF_DIFFUSE_BL"}]},"useCastShadows":true,"useShadows":true}},"name":"v3d_default_material"}],"meshes":[{"extensions":{"S8S_v3d_mesh_data":{"colorLayers":{},"uvLayers":{"UVMap":"TEXCOORD_0"}}},"name":"Cube.001","primitives":[{"attributes":{"NORMAL":2,"POSITION":1,"TEXCOORD_0":3},"indices":0,"material":1,"mode":4}]},{"extensions":{"S8S_v3d_mesh_data":{"colorLayers":{},"uvLayers":{"UVMap":"TEXCOORD_0"}}},"name":"Cube.003","primitives":[{"attributes":{"NORMAL":6,"POSITION":5,"TEXCOORD_0":7},"indices":4,"material":0,"mode":4}]},{"extensions":{"S8S_v3d_mesh_data":{"colorLayers":{},"uvLayers":{"UVMap":"TEXCOORD_0"}}},"name":"Cube.005","primitives":[{"attributes":{"NORMAL":10,"POSITION":9,"TEXCOORD_0":11},"indices":8,"material":2,"mode":4}]},{"extensions":{"S8S_v3d_mesh_data":{"colorLayers":{},"uvLayers":{"UVMap":"TEXCOORD_0"}}},"name":"Plane.017","primitives":[{"attributes":{"NORMAL":14,"POSITION":13,"TANGENT":15,"TEXCOORD_0":16},"indices":12,"material":5,"mode":4},{"attributes":{"NORMAL":19,"POSITION":18,"TANGENT":20,"TEXCOORD_0":21},"indices":17,"material":3,"mode":4}]}],"nodes":[{"extensions":{"S8S_v3d_node_data":{"frustumCulling":true,"groupNames":[],"hidden":false,"hidpiCompositing":false,"objectColor":[1.0,1.0,1.0],"objectIndex":0,"renderOrder":0,"useShadows":true}},"mesh":3,"name":"Plane.005","scale":[50.0,1.0,50.0],"translation":[-7.698383331298828,-10.169598579406738,5.183696746826172]},{"extensions":{"S8S_v3d_node_data":{"frustumCulling":true,"groupNames":["Collection"],"hidden":false,"hidpiCompositing":false,"objectColor":[1.0,1.0,1.0],"objectIndex":0,"renderOrder":0,"useShadows":true}},"mesh":0,"name":"pink","scale":[3.0,1.5,3.0],"translation":[-13.576099395751953,-6.631758689880371,10.42381477355957]},{"extensions":{"S8S_v3d_node_data":{"frustumCulling":true,"groupNames":["Collection.001"],"hidden":false,"hidpiCompositing":false,"objectColor":[1.0,1.0,1.0],"objectIndex":0,"renderOrder":0,"useShadows":true}},"mesh":1,"name":"red","scale":[3.0,1.5,5.0],"translation":[0.18422925472259521,-6.543631553649902,-0.5166358351707458]},{"extensions":{"S8S_v3d_node_data":{"frustumCulling":true,"groupNames":[],"hidden":false,"hidpiCompositing":false,"objectColor":[1.0,1.0,1.0],"objectIndex":0,"renderOrder":0,"useShadows":true}},"mesh":2,"name":"green","scale":[1.5,1.5,2.0],"translation":[-27.109777450561523,-6.31001091003418,-0.5301034450531006]},{"camera":0,"name":"__DEFAULT_CAMERA__","rotation":[-0.03303815796971321,-0.16598697006702423,-0.0055643292143940926,0.9855586886405945],"scale":[1.0,1.0,1.0],"translation":[-68.61201477050781,18.758304595947266,129.22915649414062]}],"samplers":[{}],"scene":0,"scenes":[{"extensions":{"S8S_v3d_scene_data":{"aaMethod":"AUTO","iblEnvironmentMode":"PMREM","physicallyCorrectLights":true,"pmremMaxTileSize":256,"shadowMap":{"esmDistanceScale":1.0,"renderReverseSided":false,"renderSingleSided":true,"type":"PCFPOISSON"},"worldMaterial":4}},"extras":{"animFrameRate":24,"coordSystem":"Z_UP_RIGHT"},"name":"Scene","nodes":[0,3,1,2,4]}],"textures":[{"extensions":{"S8S_v3d_texture_data":{"colorSpace":"linear"}},"name":"environment.hdr","sampler":0,"source":0}]}
